<svg xmlns="http://www.w3.org/2000/svg" width="256" height="256"><path fill-opacity=".016" d="M0 128.004v128.004l128.25-.254 128.25-.254.254-127.75L257.008 0H0v128.004m.485.496c0 70.4.119 99.053.265 63.672.146-35.38.146-92.98 0-128C.604 29.153.485 58.1.485 128.5" fill="#1976D2" fill-rule="evenodd"/><path fill-opacity=".243" d="M0 128.004v128.004l128.25-.254 128.25-.254.254-127.75L257.008 0H0v128.004m.485.496c0 70.4.119 99.053.265 63.672.146-35.38.146-92.98 0-128C.604 29.153.485 58.1.485 128.5m183.573-85.25C177.565 53.659 176.22 54.844 169 56.52c-3.575.83-15.194 3.486-25.821 5.903-12.028 2.737-20.064 5.068-21.289 6.176-2.229 2.017-10.672 13.694-19.243 26.612-4.594 6.924-5.715 9.379-5.463 11.968.262 2.701.866 3.415 3.533 4.175 5.938 1.692 9.062-.662 24.04-18.111 6.196-7.219 14.921-12.047 23.326-12.908 4.541-.466 6.346-.115 11.167 2.172 3.162 1.5 5.75 3.036 5.75 3.413 0 .378-3.713 2.185-8.25 4.015-10.021 4.044-12.75 6.309-12.75 10.584 0 3.959 2.658 6.481 6.83 6.481 4.457 0 41.163-8.759 43.633-10.413 1.12-.749 5.605-7.826 9.966-15.725l10.844-19.646c1.603-2.907 2.695-5.856 2.427-6.555C217.076 53.036 191.42 37 189.443 37c-.818 0-3.241 2.813-5.385 6.25m-67.316 76.377c-6.868 3.599-3.666 15.549 5.721 21.35 4.321 2.671 6.377 2.133 12.132-3.171 6.5-5.992 7.837-12.267 3.632-17.056-1.858-2.115-7.108-2.29-9.786-.326-1.682 1.233-2.156 1.229-3.554-.031-2.356-2.125-5.064-2.38-8.145-.766m27.589 29.623c-2.543 2.338-7.088 7.332-10.099 11.099-6.386 7.988-12.118 11.938-21.451 14.78-5.779 1.761-7.247 1.876-10.5.824-5.665-1.833-11.417-4.924-10.855-5.833.273-.441 4.53-2.475 9.46-4.518 10.099-4.186 11.206-5.133 11.336-9.696.109-3.835-3.07-6.921-7.083-6.877-5.586.062-42.328 9.715-44.151 11.6-2.833 2.929-23.185 40.243-22.529 41.305.323.522 3.389 2.63 6.814 4.685a565.28 565.28 0 0112.924 8.058c3.683 2.378 7.578 4.323 8.655 4.323 1.391 0 3.322-2.327 6.668-8.034 2.749-4.689 5.806-8.59 7.345-9.372 1.449-.736 7.36-2.328 13.135-3.539 16.393-3.437 35.223-7.962 38.28-9.198 3.812-1.542 27.72-35.59 27.72-39.477 0-2.427-3.163-4.38-7.094-4.38-3.256 0-4.764.747-8.575 4.25" fill="#1976D2" fill-rule="evenodd"/><path fill-opacity=".305" d="M0 128.004v128.004l128.25-.254 128.25-.254.254-127.75L257.008 0H0v128.004m.485.496c0 70.4.119 99.053.265 63.672.146-35.38.146-92.98 0-128C.604 29.153.485 58.1.485 128.5m181.973-83.533c-2.648 4.484-5.698 8.626-6.777 9.204-1.08.578-6.962 2.144-13.072 3.48-23.908 5.23-33.277 7.478-37.351 8.963-3.734 1.36-5.339 3.107-13.38 14.559C100.807 96.943 96 104.802 96 107.134c0 2.462 3.836 4.866 7.765 4.866 3.922 0 10.032-5.264 19.4-16.712 4.925-6.019 7.162-7.835 13.532-10.983 9.652-4.77 16.182-5.066 23.803-1.078l5 2.616-4 1.65c-12.33 5.084-16.547 7.5-17.507 10.027-1.492 3.924-.18 7.423 3.429 9.144 2.987 1.424 4.303 1.246 23.123-3.14 10.975-2.557 21.171-5.117 22.657-5.688 2.126-.817 5.062-5.287 13.75-20.928 6.077-10.939 11.038-20.681 11.026-21.648-.027-2.067-23.956-17.456-28.085-18.062-2.349-.345-3.117.458-7.435 7.769m-66.823 75.106c-2.058 1.618-2.635 2.944-2.635 6.049 0 2.188.663 5.26 1.474 6.827 2.014 3.896 9.401 10.051 12.062 10.051 3.119 0 10.886-6.263 12.819-10.337 2.43-5.121 2.075-8.387-1.278-11.74-3.287-3.287-5.602-3.644-8.854-1.366-2.012 1.409-2.434 1.409-4.446 0-3.029-2.122-6.002-1.954-9.142.516m32.768 25.315c-1.703.762-6.203 5.123-10 9.689-9.832 11.826-12.111 13.863-19.294 17.239-9.158 4.305-14.374 4.575-22.029 1.139-6.977-3.131-6.981-3.123 3.42-7.122 11.389-4.379 15.221-10.035 10.345-15.269-1.903-2.043-2.81-2.251-7.75-1.775-5.797.557-38.388 8.285-41.177 9.763-.87.461-6.663 9.951-12.872 21.088-8.121 14.565-11.034 20.655-10.378 21.696.831 1.317 13.33 9.545 24.157 15.902 5.151 3.025 5.501 2.81 11.082-6.827 1.976-3.412 4.73-7.051 6.12-8.086 1.39-1.035 7.69-3.015 14-4.4 37.242-8.171 38.226-8.462 41.973-12.384 5.572-5.833 24-33.807 24-36.432 0-4.451-6.115-6.677-11.597-4.221" fill="#1976D2" fill-rule="evenodd"/><path fill-opacity=".523" d="M0 128.004v128.004l128.25-.254 128.25-.254.254-127.75L257.008 0H0v128.004m.485.496c0 70.4.119 99.053.265 63.672.146-35.38.146-92.98 0-128C.604 29.153.485 58.1.485 128.5m186.05-90.337c-.929 1.285-3.567 5.246-5.862 8.801-4.619 7.155-5.51 7.646-19.173 10.571-4.4.942-14.75 3.29-23 5.219-17.954 4.197-17.018 3.441-32.25 26.047C93.143 108.253 92.795 112 104.094 112c3.837 0 4.741-.533 9.816-5.784 3.075-3.181 8.144-8.737 11.266-12.348 9.752-11.277 22.822-15.506 33.597-10.87 2.86 1.23 4.978 2.596 4.707 3.034-.271.439-3.663 2.009-7.536 3.49-9.319 3.56-12.944 6.639-12.944 10.994 0 3.735 3.687 7.476 7.385 7.495 3.45.017 41.94-9.132 44.119-10.488 1.102-.685 5.34-7.271 9.419-14.635 4.078-7.363 9.189-16.422 11.356-20.131 2.167-3.708 3.705-7.356 3.418-8.105-.564-1.47-25.766-17.596-28.696-18.362-1.087-.284-2.431.442-3.466 1.873m-70.799 81.087c-6.196 4.706-3.23 15.562 5.985 21.902 4.526 3.114 4.552 3.118 7.66 1.345 7.476-4.266 11.619-9.969 11.619-15.993 0-6.732-7.584-11-12.171-6.849-1.702 1.54-1.956 1.54-3.658 0-2.162-1.957-7.112-2.169-9.435-.405m26.847 31.121A1743.181 1743.181 0 00130 163.727c-7.367 7.917-14.676 11.534-23.5 11.63-4.931.054-14.964-3.797-13.992-5.37.237-.383 3.792-1.923 7.901-3.421 9.263-3.379 12.591-6.25 12.591-10.863 0-3.93-2.288-6.44-6.566-7.202-1.788-.318-11.128 1.532-23.922 4.739l-20.988 5.26-2.652 4C54.164 169.602 38 199.588 38 201.22c0 2.244 27.358 19.119 29.761 18.356 1.005-.319 3.859-4.067 6.341-8.328 2.613-4.488 5.586-8.268 7.063-8.985 1.404-.68 7.903-2.382 14.443-3.782 29.451-6.305 37.307-8.549 40.256-11.499 1.555-1.555 7.627-9.95 13.492-18.655 11.068-16.424 12.524-20.179 8.894-22.935-.963-.731-3.512-1.343-5.667-1.36-3.525-.029-4.524.604-10 6.339" fill="#1976D2" fill-rule="evenodd"/></svg>